<svg width="138" height="42" viewBox="0 0 138 42" fill="none" xmlns="http://www.w3.org/2000/svg">
<path d="M32.5736 5.83372V5H20.8474C20.3081 5 19.7909 5.21424 19.4095 5.59558C19.0282 5.97693 18.8139 6.49415 18.8139 7.03345C18.8139 6.49415 18.5997 5.97693 18.2183 5.59558C17.837 5.21424 17.3198 5 16.7805 5H5V8.93812H32.5736V5.83372Z" fill="#D72134"/>
<path d="M18.7868 36.4913C22.4433 36.4913 25.95 35.0387 28.5356 32.4532C31.1211 29.8677 32.5736 26.3609 32.5736 22.7044V10.8833H5V22.7044C5 26.3609 6.45254 29.8677 9.03806 32.4532C11.6236 35.0387 15.1303 36.4913 18.7868 36.4913Z" fill="#D72134"/>
<path d="M6.97119 14.8408L11.3973 17.3962L18.0467 28.9191L17.2469 28.4514C16.8019 28.1911 16.4345 27.8167 16.1827 27.3669L14.3458 24.1947L13.5596 23.7406C13.1162 23.4872 12.7488 23.1198 12.4954 22.6764L10.6653 19.5042L9.8587 19.0433C9.42033 18.7953 9.05369 18.4381 8.79452 18.0062L6.97119 14.8408Z" fill="white"/>
<path d="M24.2366 18.9639C23.7948 19.2193 23.4278 19.5863 23.1724 20.028L19.2817 26.8062L15.4859 20.2246C15.2285 19.7844 14.862 19.4179 14.4218 19.1604L12.1443 17.8455L18.2989 28.5075L18.7869 29.3616L25.0364 18.5165L24.2366 18.9639Z" fill="white"/>
<path d="M30.6089 14.8408L20.645 17.3284L18.9708 17.7487L19.2758 18.2638L18.4421 18.5146L18.7539 19.0772L17.9473 19.3619L18.2997 19.9719L18.6251 20.5413L21.0923 19.389L20.9161 19.694L18.2997 24.2286L19.2826 25.9367L22.8411 19.7753C23.0945 19.332 23.4619 18.9645 23.9053 18.7112L30.6089 14.8408Z" fill="white"/>
<path d="M46.1564 17.7434H46.1226L43.1673 10.8975H40.4492L44.8889 20.719H47.3901L51.8366 10.8975H49.1117L46.1564 17.7434Z" fill="#D72134"/>
<path d="M76.2674 17.1402H76.2403L71.9226 10.8975H69.313V20.719H71.8074V14.4763H71.8413L76.159 20.719H78.7686V10.8975H76.2674V17.1402Z" fill="#D72134"/>
<path d="M86.9409 10.8975H84.4465V20.719H91.3332L92.3092 18.5297H86.9409V10.8975Z" fill="#D72134"/>
<path d="M116.806 17.1402H116.779L112.455 10.8975H109.852V20.719H112.346V14.4763H112.373L116.691 20.719H119.301V10.8975H116.806V17.1402Z" fill="#D72134"/>
<path d="M132.85 15.4565H127.956V17.1985H130.43C130.328 18.1949 129.515 18.771 128.098 18.771C127.72 18.7913 127.343 18.7291 126.992 18.5886C126.64 18.4481 126.324 18.2328 126.065 17.9576C125.552 17.3522 125.287 16.5745 125.326 15.7818C125.288 14.9913 125.552 14.2158 126.065 13.6128C126.324 13.3376 126.64 13.1223 126.992 12.9818C127.343 12.8414 127.72 12.7791 128.098 12.7994C128.569 12.7763 129.035 12.9003 129.432 13.1541C129.829 13.408 130.138 13.7791 130.315 14.2161L132.667 13.5383C132.097 11.7963 130.321 10.5965 128.098 10.5965C127.407 10.5614 126.717 10.6701 126.07 10.9157C125.424 11.1614 124.835 11.5386 124.342 12.0235C123.849 12.5083 123.462 13.0904 123.205 13.7327C122.949 14.3749 122.828 15.0635 122.852 15.7547C122.827 16.4465 122.947 17.1358 123.203 17.7789C123.459 18.422 123.846 19.0049 124.339 19.4905C124.833 19.9761 125.422 20.3539 126.069 20.6C126.716 20.846 127.407 20.9549 128.098 20.9197C130.857 20.9197 132.639 19.4759 132.843 17.1307C132.89 16.5207 132.843 15.9784 132.85 15.4565Z" fill="#D72134"/>
<path d="M58.3506 10.8975L53.9719 20.719H56.5137L57.1441 19.2346L57.2593 18.9567H61.7533L61.8685 19.2346L62.4718 20.6987H65.0542L60.662 10.8975H58.3506ZM58.0998 16.9436L59.4961 13.5545L60.8518 16.9436H58.0998Z" fill="#D72134"/>
<path d="M99.5274 10.8975L95.1487 20.719H97.7176L98.3209 19.255L98.4361 18.9771H102.93L103.045 19.255L103.649 20.719H106.231L101.839 10.8975H99.5274ZM99.2766 16.9436L100.673 13.5545L102.062 16.9436H99.2766Z" fill="#D72134"/>
<path d="M51.9127 25.5928H53.1938V29.1581C53.1938 30.0596 53.6547 30.4731 54.5494 30.4731C55.4441 30.4731 55.905 30.0596 55.905 29.1649V25.5928H57.1861V29.2123C57.1861 30.7849 56.2304 31.5982 54.5291 31.5982C52.8277 31.5982 51.8652 30.7849 51.8652 29.2123L51.9127 25.5928Z" fill="#D72134"/>
<path d="M60.4116 31.4762V25.5928H61.8147L64.5666 29.6597V25.5928H65.8681V31.4762H64.5124L61.7469 27.4093V31.4762H60.4116Z" fill="#D72134"/>
<path d="M69.313 31.4762V25.5928H70.6008V31.4762H69.313Z" fill="#D72134"/>
<path d="M75.6703 31.4762L72.959 25.5928H74.4163L76.2871 29.8359L78.2053 25.5928H79.6626L76.9513 31.4762H75.6703Z" fill="#D72134"/>
<path d="M82.0342 31.4762V25.5928H86.4739V26.6908H83.3153V27.9245H86.1756V28.9954H83.3153V30.3511H86.4671V31.4762H82.0342Z" fill="#D72134"/>
<path d="M94.8038 31.4762H93.3397L91.9841 29.3479H90.947V31.4762H89.6592V25.5928H92.7568C94.0379 25.5928 94.8513 26.3248 94.8513 27.4636C94.8701 27.8948 94.7301 28.3179 94.4578 28.6527C94.1854 28.9876 93.7996 29.2108 93.3736 29.2801L94.8038 31.4762ZM92.628 28.2159C93.2245 28.2159 93.5566 27.9448 93.5566 27.45C93.5566 26.9552 93.2584 26.718 92.6077 26.718H90.9403V28.2159H92.628Z" fill="#D72134"/>
<path d="M105.317 31.4762V25.5928H106.605V31.4762H105.317Z" fill="#D72134"/>
<path d="M111.493 31.4762V26.7315H109.385V25.5928H114.855V26.7247H112.774V31.4695L111.493 31.4762Z" fill="#D72134"/>
<path d="M119.117 31.4762V29.1445L116.67 25.5928H118.141L119.754 28.0804L121.367 25.5928H122.832L120.385 29.1445V31.4762H119.117Z" fill="#D72134"/>
<path d="M100.302 27.9367C98.9468 27.5775 98.7841 27.5097 98.7434 27.1776C98.7028 26.8454 99.1366 26.5675 99.7398 26.5675C100.019 26.5421 100.3 26.6041 100.543 26.7449C100.786 26.8858 100.979 27.0985 101.095 27.3538L102.343 27.0623C102.187 26.6027 101.878 26.2103 101.468 25.9507C100.948 25.6215 100.341 25.4562 99.7263 25.4762C98.3706 25.4762 97.442 26.2083 97.442 27.1911C97.442 28.0384 98.0656 28.5467 99.5772 28.9331C100.879 29.2381 101.258 29.455 101.258 29.8482C101.258 30.2413 100.858 30.526 100.119 30.526C99.7637 30.5664 99.4057 30.4738 99.1141 30.2661C98.8226 30.0584 98.6181 29.7502 98.5401 29.4008L97.2861 29.699C97.5844 30.8852 98.6418 31.5698 100.126 31.5698C101.611 31.5698 102.553 30.892 102.553 29.8143C102.553 28.9128 101.889 28.3366 100.302 27.9367Z" fill="#D72134"/>
</svg>
